<svg width="823" height="625" viewBox="0 0 823 625" fill="none" xmlns="http://www.w3.org/2000/svg">
<path opacity="0.5" d="M629 88L643.393 73.6066C649.251 67.7487 658.749 67.7487 664.607 73.6066L668.393 77.3934C674.251 83.2513 683.749 83.2513 689.607 77.3934L704 63" stroke="#4E887A" stroke-width="13" stroke-linecap="round"/>
<path opacity="0.5" d="M709 100L723.393 85.6066C729.251 79.7487 738.749 79.7487 744.607 85.6066L748.393 89.3934C754.251 95.2513 763.749 95.2513 769.607 89.3934L784 75" stroke="#4E887A" stroke-width="13" stroke-linecap="round"/>
<path opacity="0.5" d="M7 605.942L21.5104 591.429C27.3685 585.57 36.8673 585.57 42.7253 591.429L46.6283 595.332C52.4863 601.191 61.9851 601.191 67.8432 595.332L82.3536 580.82" stroke="#4E887A" stroke-width="13" stroke-linecap="round"/>
<path opacity="0.5" d="M87.3111 618L101.821 603.487C107.68 597.628 117.178 597.628 123.036 603.487L126.939 607.391C132.797 613.25 142.296 613.25 148.154 607.391L162.665 592.878" stroke="#4E887A" stroke-width="13" stroke-linecap="round"/>
<ellipse opacity="0.5" cx="780.861" cy="550.171" rx="20.3256" ry="20.6" fill="#4E887A"/>
<ellipse opacity="0.5" cx="773.921" cy="599.41" rx="13.3852" ry="13.5659" fill="#4E887A"/>
<ellipse opacity="0.5" cx="812.094" cy="577.805" rx="10.9064" ry="11.0537" fill="#4E887A"/>
<ellipse opacity="0.5" cx="157.211" cy="15.5756" rx="15.3682" ry="15.5756" fill="#4E887A"/>
<ellipse opacity="0.5" cx="152.254" cy="52.7561" rx="10.4107" ry="10.5512" fill="#4E887A"/>
<ellipse opacity="0.5" cx="181.007" cy="36.6781" rx="8.4277" ry="8.54146" fill="#4E887A"/>
</svg>
